<svg svgxmlns="http://www.w3.org/2000/svg">
  <!--Торшер-->
  <symbol viewbox="0 0 40 62" id="lamp-ico">
    <g class="lamp-ico" opacity=".5" fill="#149080">
      <path d="M15.16 37.72c-.3 1-.2 2.19 0 3.58.5 2.59 1.7 5.97 2.4 9.65h5.08c.7-3.58 1.9-6.96 2.5-9.65.3-1.4.3-2.69 0-3.58-.3-.9-.9-1.6-2-2.3h-5.98c-1.2.7-1.8 1.4-2 2.3ZM26.93 57.62H13.17c-1.3 0-2.3 1-2.3 2.19V62h18.36v-2.19c0-1.2-1-2.19-2.3-2.19ZM34.02 2.19H22.34c0-1.2-1-2.19-2.29-2.19-1.3 0-2.3 1-2.3 2.19H6.09L0 27.57c.8-.5 1.6-1 2.6-1 1.39 0 2.19.8 2.89 1.4.7.6 1.2.8 1.4.8.3 0 .8-.3 1.49-.8.7-.5 1.6-1.4 2.9-1.4 1.29 0 2.19.8 2.88 1.4.7.5 1.2.8 1.5.8.1 0 .3-.1.6-.2.2-.1.5-.4.9-.6.5-.4 1.1-1 2-1.2.3-.1.6-.1.89-.1 1.3 0 2.2.8 2.9 1.4.7.5 1.19.8 1.49.8.3 0 .8-.3 1.4-.8.7-.6 1.6-1.4 2.89-1.4 1.4 0 2.2.8 2.9 1.4.29.3.59.5.89.6.2.1.4.2.6.2.3 0 .8-.3 1.4-.9.7-.6 1.59-1.4 2.89-1.4 1 0 1.8.5 2.59 1L34.02 2.19ZM23.44 53.14h-6.88c-.7 0-1.1.5-1.1 1.1 0 .6.5 1.1 1.1 1.1h6.88c.7 0 1.1-.5 1.1-1.1.1-.6-.4-1.1-1.1-1.1Z"/>
      <path d="M20.05 28.76c-.1 0-.3.1-.6.2-.2.1-.4.3-.6.4v3.68h2.3v-3.58c-.5-.4-.9-.7-1.1-.7Z"/>
    </g>
  </symbol>
  <!--Игрушка-->
  <symbol viewbox="0 0 60 60" id="toy-ico">
    <g class="toy-ico">
      <path opacity=".5" d="m0 44 27.4 16V36.54L0 20.44v23.55Zm51.3-31.52V15c0 1.81-3.5 3.32-7.7 3.32-4.3 0-7.7-1.5-7.7-3.32v-4.13c.3 1.71 3.6 3.12 7.7 3.12 4.3 0 7.7-1.5 7.7-3.32 0-1.81-3.5-3.32-7.7-3.32h-1l-5-2.92v3.12c0 1.81-3.5 3.32-7.7 3.32-2.7 0-5-.6-6.4-1.5-.2-.2-.4-.41-.7-.61-.4-.4-.6-.8-.6-1.21V4.53l-4.8 2.82h-1.1c-4.3 0-7.7 1.5-7.7 3.32 0 1.81 3.5 3.32 7.7 3.32 4.1 0 7.4-1.4 7.7-3.12V15c0 1.81-3.5 3.32-7.7 3.32-4.3 0-7.7-1.5-7.7-3.32v-2.42l-6 3.53 27.5 16.1 27.4-16-6.2-3.73ZM37.7 22.75c0 1.81-3.5 3.32-7.7 3.32-4.3 0-7.7-1.5-7.7-3.32v-4.13c.3 1.72 3.6 3.13 7.7 3.13s7.4-1.41 7.7-3.13v4.13Zm-5.1 14V60L60 44V20.73l-27.4 16Zm-2.7-30.1c4.3 0 7.7-1.52 7.7-3.33S34.1 0 29.9 0c-4.3 0-7.7 1.51-7.7 3.32 0 1.81 3.4 3.32 7.7 3.32Z" fill="#149080"/>
    </g>
  </symbol>
  <!--Цветок-->
  <symbol viewbox="0 0 33 38" id="flower-ico">
    <g class="flower-ico">
      <path d="M16.5 38C25.57 38 33 30.65 33 21.66A16.4 16.4 0 0 0 16.5 38ZM4.74 16.65c0 2.55 2.07 4.5 4.54 4.5.93 0 1.86-.31 2.58-.82v.3c0 2.56 2.06 4.5 4.54 4.5a4.49 4.49 0 0 0 4.53-4.5v-.3c.73.5 1.65.82 2.58.82a4.49 4.49 0 0 0 4.54-4.5 4.43 4.43 0 0 0-2.58-4.09 4.43 4.43 0 0 0 2.58-4.08 4.54 4.54 0 0 0-7.12-3.68v-.3c0-2.56-2.06-4.5-4.53-4.5a4.49 4.49 0 0 0-4.54 4.5v.3a4.54 4.54 0 0 0-2.58-.82 4.49 4.49 0 0 0-4.54 4.5 4.43 4.43 0 0 0 2.58 4.08 4.61 4.61 0 0 0-2.58 4.1ZM16.5 7.97a4.49 4.49 0 1 1 0 8.99 4.49 4.49 0 1 1 0-9ZM0 21.66C0 30.65 7.42 38 16.5 38A16.4 16.4 0 0 0 0 21.66Z" fill="#63D1BB"/>
    </g>
  </symbol>
  <!--Денежка-->
  <symbol viewbox="0 0 47 27" id="money-ico">
    <g class="money-ico">
      <path d="M43.07 0H3.93A3.84 3.84 0 0 0 0 3.86v19.28A3.84 3.84 0 0 0 3.93 27h39.14A3.84 3.84 0 0 0 47 23.14V3.86A3.97 3.97 0 0 0 43.07 0ZM3.03 24.73V2.77h40.54v21.96H3.03Z" fill="#63D1BB"/>
      <path d="M6.96 20.87h32.68V6.63H6.96v14.24ZM23.5 8.5a5.33 5.33 0 0 1 5.35 5.24 5.33 5.33 0 0 1-5.35 5.24 5.33 5.33 0 0 1-5.35-5.24A5.27 5.27 0 0 1 23.5 8.5Z" fill="#63D1BB"/>
    </g>
  </symbol>
  <!--Сердечко-->
  <symbol viewbox="0 0 34 27" id="like-ico">
    <g class="like-ico">
      <path d="M34 8.45C34 3.79 29.98 0 25.04 0c-3.5 0-6.5 1.94-8.04 4.66A9.12 9.12 0 0 0 8.96 0C4.02 0 0 3.79 0 8.45 0 17.29 15.15 27 17 27c1.96 0 17-9.62 17-18.55Z" fill="#63D1BB"/>
    </g>
  </symbol>
  <!--Клубок-->
  <symbol viewbox="0 0 35 34" id="tangle-ico">
    <g class="tangle-ico">
      <path d="M.3 13.95c-.4 2.08-.4 4.16 0 6.24l4.18-3.17-4.17-3.07ZM24.85 1.59a17.96 17.96 0 0 0-15.58.4l7.64 5.53 7.94-5.93ZM34.53 13.06l-4.9 3.66 5 3.66c.5-2.37.5-4.94-.1-7.32ZM9.37 32.06a17.84 17.84 0 0 0 16 .1l-8.26-6.04-7.74 5.94ZM8.05 14.25 1.73 9.7c-.3.7-.61 1.38-.81 2.08l5.4 3.95 1.73-1.48ZM18.94 24.83l8.46 6.14c.3-.2.61-.4.81-.6.3-.2.61-.49.92-.79l-8.45-6.13-1.74 1.38ZM11.61 11.58 4.07 6.14c-.5.5-.91 1.09-1.32 1.68l7.03 5.14 1.83-1.38ZM22.5 22.16l8.26 6.04c.5-.5.92-1.09 1.32-1.68l-7.84-5.74-1.73 1.38ZM15.18 8.9 7.33 3.18c-.2.1-.4.3-.6.4-.42.3-.82.59-1.13.98l7.84 5.64 1.74-1.28ZM26.07 19.4l7.13 5.14c.3-.7.62-1.29.92-1.98L27.91 18l-1.84 1.38ZM26.89 2.67.92 22.37c.2.68.5 1.38.81 2.07l27-20.48c-.52-.5-1.13-.89-1.84-1.29ZM31.27 6.53c-.3-.4-.61-.79-.92-1.09L2.85 26.22c.2.5.51.89.82 1.19.1.2.3.4.4.5l27.7-20.78c-.2-.2-.3-.4-.5-.6ZM32.9 8.9 5.7 29.49c.51.5 1.12 1 1.74 1.39l26.48-19.98c-.3-.7-.61-1.39-1.02-1.98Z" fill="#63D1BB"/>
    </g>
  </symbol>
  <!--Ракета-->
  <symbol viewbox="0 0 55 23" id="rocket-ico">
    <g class="rocket-ico">
      <path d="M40.95 5.75c-3.64-1-7.89-1.69-12.54-1.69-2.93 0-5.56.2-7.79.6L13.75 0H.1l5.87 6.15h8.49C9.8 7.73 7.58 9.62 7.58 9.62v3.76s2.33 1.89 6.98 3.47h-8.7L0 23h13.65l6.87-4.66a49.05 49.05 0 0 0 20.32-1.09 10.14 10.14 0 0 1-1.92-5.85c.1-1.98.91-3.87 2.03-5.65ZM44.49 6.74c-1.32 1.59-2.03 3.17-2.03 4.76 0 1.59.71 3.17 2.03 4.76C50.96 14.08 55 11.5 55 11.5s-4.04-2.58-10.51-4.76Z" fill="#63D1BB"/>
    </g>
  </symbol>
  <!--Подарок-->
  <symbol viewbox="0 0 33 32" id="gift-ico">
    <g class="gift-ico">
      <path d="M3.02752 32H15.6422V18.2716H3.02752V32ZM31.3853 8.69136H24.0183C24.5229 8.39506 25.0275 8.19753 25.4312 7.90123C27.0459 6.81481 27.8532 5.33333 27.8532 3.95062C27.8532 2.76543 27.2477 1.77777 26.4404 1.08641C25.633 0.395053 24.5229 0 23.4128 0C22.2018 0 20.9908 0.395053 20.0826 1.08641C18.5688 2.07406 17.4587 3.55555 16.6514 5.1358C16.6514 5.23456 16.5505 5.33333 16.5505 5.33333C16.2477 4.74073 15.945 4.14814 15.5413 3.55555C14.8349 2.56789 14.0275 1.679 13.0183 1.08641C12.0092 0.493818 10.8991 0 9.68807 0C8.47706 0 7.36697 0.49383 6.45871 1.28395C5.65137 2.07408 5.04587 3.16049 5.04587 4.34567C5.04587 5.03703 5.2477 5.82715 5.65137 6.51851C6.25687 7.4074 7.06422 8.09877 8.27523 8.69136H1.61467C0.706413 8.69136 0 9.38271 0 10.2716V16.0988H15.5413V8.69136H17.4587V16.0988H33V10.2716C33 9.38271 32.2936 8.69136 31.3853 8.69136ZM8.88073 6.41975C8.27522 6.02469 7.87155 5.62962 7.66972 5.33333C7.46788 4.93826 7.36696 4.64197 7.36696 4.34567C7.36696 3.85184 7.56881 3.35802 8.0734 2.86419C8.47707 2.46913 9.08256 2.17284 9.68807 2.17284C10.3945 2.17284 11.1009 2.37036 11.7064 2.86419C12.7156 3.55555 13.7248 4.64196 14.3303 6.02468C14.633 6.71604 14.9358 7.4074 15.1376 8.09876C12.0092 7.80246 9.99082 7.11111 8.88073 6.41975ZM19.4771 4.8395C20.0826 4.04938 20.6881 3.35802 21.3945 2.96296C22.1009 2.46914 22.8073 2.27161 23.4128 2.27161C24.0183 2.27161 24.5229 2.46914 24.9266 2.76543C25.3303 3.06173 25.5321 3.45679 25.5321 3.95062C25.5321 4.44444 25.2294 5.23456 24.0183 6.02468C22.9083 6.8148 20.8899 7.7037 17.8624 8.29629C18.1651 7.1111 18.7706 5.82715 19.4771 4.8395ZM17.4587 32H30.0734V18.2716H17.4587V32Z" fill="#63D1BB"/>
    </g>
  </symbol>
  <!--Поиск-->
  <symbol viewbox="0 0 18 18" id="search-ico">
    <g class="search-ico">
      <path opacity=".2" d="m17.7 16.06-3.48-3.48a7.63 7.63 0 0 0 1.53-4.7c0-4.4-3.48-7.88-7.88-7.88A7.81 7.81 0 0 0 0 7.88c0 4.4 3.48 7.87 7.88 7.87 1.73 0 3.37-.61 4.7-1.53l3.48 3.47c.2.2.4.31.82.31.6 0 1.12-.51 1.12-1.13 0-.2-.1-.5-.3-.81ZM2.24 7.88a5.67 5.67 0 0 1 5.63-5.63 5.67 5.67 0 0 1 5.62 5.63 5.67 5.67 0 0 1-5.63 5.62 5.67 5.67 0 0 1-5.62-5.63Z" fill="#000"/>
    </g>
  </symbol>
  <!--Корзина-->
  <symbol viewbox="0 0 21 18" id="basket-ico">
    <g class="basket-ico">
      <path opacity=".2" d="M20.19 6.86h-3.55L13.19.38c-.2-.38-.61-.48-1.02-.28-.4.19-.5.57-.3.95l3.14 5.8H5.78l3.15-5.8c.2-.38 0-.76-.3-.95A.82.82 0 0 0 7.6.38L4.16 6.86H.8c-.4 0-.81.28-.81.76 0 .38.3.76.81.76h.2l.92 2.86c-.2.1-.3.28-.3.57 0 .38.3.67.7.67L4.06 18h12.88l1.73-5.52c.4 0 .7-.29.7-.67 0-.2-.1-.48-.3-.57L20 8.38h.2c.4 0 .81-.28.81-.76s-.4-.76-.81-.76Zm-4.57 9.62H5.07l-1.21-4.1h13.08l-1.32 4.1Zm1.63-5.53H3.35L2.54 8.3h15.52l-.81 2.66Z" fill="#000"/>
    </g>
  </symbol>
  <!--Флажок-->
  <symbol viewbox="0 0 47 81" id="flag-ico">
    <g class="flag-ico">
      <path d="M7.77 3.86v38.52L47 23.08 7.77 3.85ZM0 80.9V0h3.83v80.9H0Z" fill="#63D1BB"/><path d="M3.83.1H0V81h3.83V.1Z" fill="#231F20"/>
    </g>
  </symbol>
  <!--Камера-->
  <symbol viewbox="0 0 32 22" id="camcorder-ico">
    <g class="camcorder-ico">
      <path d="m26 10 6-4v16l-6-4v-8Zm-2 0v8c0 2.2-1.8 4-4 4H4c-2.2 0-4-1.8-4-4v-8c0-2.2 1.8-4 4-4h10c0-1.1.9-2 2-2V2H5c-.6 0-1-.4-1-1s.4-1 1-1h12c.6 0 1 .4 1 1v3a2 2 0 0 1 2 2c2.2 0 4 1.8 4 4Zm-12 0H4v8h8v-8Zm8 1c0-.6-.4-1-1-1h-4c-.6 0-1 .4-1 1s.4 1 1 1h4c.6 0 1-.4 1-1Z" fill="#63D1BB"/>
    </g>
  </symbol>
  <!--Видео-->
  <symbol viewbox="0 0 101 77" id="play-ico">
    <g class="play-ico">
      <path d="M97 18.1s-.9-7-3.8-10.1c-3.6-4-7.7-4.1-9.5-4.3-13.3-1-33.3-1-33.3-1h-.1s-20 0-33.3 1c-1.9.2-5.9.3-9.5 4.3-2.8 3.1-3.8 10.1-3.8 10.1s-.9 8.2-.9 16.4v7.7c0 8.2.9 16.4.9 16.4s.9 7 3.8 10.1c3.6 4 8.4 3.9 10.5 4.3 7.6.8 32.4 1 32.4 1s20 0 33.3-1c1.9-.2 5.9-.3 9.5-4.3C96 65.6 97 58.6 97 58.6s.9-8.2.9-16.4v-7.7c0-8.2-.9-16.4-.9-16.4Z" fill="#63D1BB"/>
      <path d="M50.3 76.8c-1 0-25-.3-32.6-1h-.2c-.3-.1-.7-.1-1.1-.2-2.5-.3-7.2-.9-10.8-5C2.2 67 1.2 59.8 1.1 59c0-.3-1-8.5-1-16.7v-7.7c0-8.3.9-16.4.9-16.7v-.1c.1-.8 1.2-7.9 4.5-11.6 4-4.4 8.5-4.9 10.7-5.1.2 0 .4 0 .5-.1h.1c13.3-1 33.3-1 33.5-1h.1c.2 0 20.2 0 33.5 1h.1c.2 0 .3 0 .5.1 2.2.2 6.7.7 10.7 5.1 3.4 3.6 4.4 10.8 4.5 11.6 0 .3 1 8.5 1 16.8v7.7c0 8.3-.9 16.4-1 16.7v.1c-.1.8-1.2 8-4.5 11.6-4 4.4-8.5 4.9-10.7 5.1-.2 0-.4 0-.5.1h-.1c-13.3.9-33.4.9-33.6.9Zm-31.9-6.4c7.5.7 31.2 1 32 1 .7 0 20.1 0 33-1 .2 0 .4 0 .6-.1 1.8-.2 4.6-.5 7.2-3.3 1.8-2 2.9-6.9 3.1-8.6.1-.5.9-8.4.9-16.1v-7.7c0-7.8-.9-15.6-1-16.1-.3-2.4-1.4-6.8-3.1-8.5-2.6-2.9-5.4-3.1-7.2-3.3-.2 0-.4 0-.6-.1-13.1-1-32.8-1-33-1h-.1c-.2 0-20 0-33 1-.2 0-.4 0-.6.1-1.8.2-4.6.5-7.2 3.3-1.8 2-2.9 6.9-3.1 8.6-.1.6-.9 8.4-.9 16.1v7.7c0 7.7.9 15.6.9 16.1.3 2.4 1.4 6.8 3.1 8.5 2.3 2.6 5.3 3 7.5 3.3.6-.1 1 0 1.5.1Z" fill="#fff"/>
      <path d="M38.4 20.5v35.7l29.8-17.8-29.8-17.9Z" fill="#fff"/>
    </g>
  </symbol>
  <!--Логотип Мишки-->
  <symbol viewbox="0 0 86 35" id="logo-mobile">
    <g class="logo-mobile">
      <path d="M4.55 26.32c0-3.5-.3-6.9-.4-10.4v-1c0 .1.1.2.1.4.5 1.4 1.1 2.7 1.8 3.9.7 1.2 1.1 2.6 1.5 3.9-.2.2-.3.4-.2.6 0 .2.1.2.2.3.5.5 1.5.2 2.1 0 .2-.1.5-.2.7-.4.3-.2.7-.6.6-1 0-.1 0-.2-.1-.2.4-1.1.6-2.2.8-3.3.2-1.2.7-2.3 1.1-3.5 0 .5.1 1 .1 1.6.2 2.1 0 4.3 0 6.4 0 .7 0 1.4.2 2.1.1.3.3 1.5.2 1.6-.5.5-.4 1.1.3 1.2.8.2 1.8-.1 2.3-.6 1-.9.5-2.4.3-3.6-.4-2 .1-4.2 0-6.2-.1-2.3-.4-4.5-.4-6.8 0-1.8.3-3.7-.3-5.5 0-.2.1-.4.1-.6.2-.9-2.8-.4-3.2.4-.3.2-.4.5-.3.8 0 .1.1.1.1.2-.6 2.7-1.3 5.3-2.2 7.9-.3 1-.7 2-1.1 3-.5-.9-1-1.9-1.4-2.8-1.2-2.9-2.2-5.8-3.6-8.6.2-1.3-2.7-1.2-3.3 0-.7 1.4-.6 2.9-.4 4.4.3 1.7.3 3.4.3 5.1 0 3.3.3 6.7.4 10-.3.3-.4.7-.1 1.2.1.2.3.3.5.5 1.2.7 3.3.2 3.3-1ZM22.75 7.92c-.1-.6-3.4.1-3.3.9.3 1.8.2 3.6.1 5.4 0 1.7.4 3.3.6 5 .2 1.7-.1 3.5.1 5.2.1.8.6 2.3.1 3-.4.4 1.2.3 1.3.3.6-.1 1.5-.3 1.9-.9.6-.7.2-2 0-2.8-.3-1.7-.1-3.5-.2-5.3-.1-1.7-.6-3.3-.7-4.9.3-2 .4-3.9.1-5.9ZM25.95 14.62c.9 2.5 4.6 1.3 6.6 1.5 3.2.2 2.3 4.6 2.3 6.6 0 1.1 1 2.9.2 3.8-.5.6-1.7.6-2.4.6-.7.1-1.9.3-2.3-.4-.8-1.2.1-3.2-.1-4.6-.1-.8-3.4-.1-3.3.9.3 2.2-1.2 5.2 2 5.6 2.1.2 4.4-.1 6.3-.8 1-.3 1.9-.8 2.7-1.5.9-.8.6-2 .4-3-.6-2.5.6-5.3-1-7.5-1.7-2.3-5-.7-7.2-1.3-1.2-.2-1.2-1.8-1.2-2.8 0-1.2-.1-2.3-.2-3.5-.1-.9 0-1.8.6-2.4.1-.1.7-.3.7-.3.3-.1.6-.1.9-.1 1.3-.1 3.9.2 3.4 2.1-.2.9 3 .4 3.3-.5 1-3.9-6.1-3.1-8.2-2.6-1.9.5-3.9 1.6-4 3.7-.1 1 .2 2 .3 3 0 1.2-.3 2.4.2 3.5ZM40.35 16.52c-.1 1.8-.2 3.6-.2 5.4 0 .9.1 1.8.3 2.8.1.8.4 2 .2 2.8-.2.6 3 .2 3.3-.6.5-1.5-.2-3.4-.3-4.9-.1-1.5 0-2.9.1-4.4 1.7-.1 3.4-.2 5.1 0l.3 3.5c.1 1 .2 1.9.2 2.9 0 .9.1 2.1-.2 2.9-.7 1.7 2.7 1.6 3.1.3.6-1.6.4-3.5.3-5.2-.3-2.2-.6-4.2-.6-6.3-.1-3.2-.6-6.3-.6-9.5 0-1.7-3.3-1.1-3.3.3 0 3 .4 6 .6 9.1v.2c-1.6 0-3.3.1-4.9.2.2-3.9-.5-7.8-.4-11.7 0-.5-3.3-.1-3.3.9-.2 3.8.4 7.5.3 11.3ZM54.45 21.82c-.3.3-.2.4 0 .5 0 1.5 0 2.9-.2 4.4-.4.6.4 1 .9 1h.1c.6 0 2.2-.3 2.3-1.1.2-1.8.2-3.5.2-5.3 1.3-1.4 2.4-3.1 3.4-4.7.6 1.2 1.2 2.5 1.7 3.9.7 2.3 1.9 4.4 2.6 6.8.5 1.5 3.8.6 3.3-.9-.7-2.3-1.9-4.5-2.6-6.8-.8-2.3-2-4.4-3-6.6.8-1.6 1.7-3.3 2.5-5 .7-1.5 1.2-3.2 2.6-4.3.5-.4.5-.8-.2-.8-.7-.1-1.7.2-2.3.6-1.3 1-2 2.2-2.7 3.6-.8 1.7-1.6 3.4-2.5 5.1-.1.1-.1.2-.2.4-.4.3-.7.6-.5 1.1-.7 1.3-1.3 2.6-2.1 3.9-.3-4.7-.8-9.3-1-14 0-1.1-3.3-.4-3.3.9.2 5.7 1 11.5 1 17.3ZM85.95 15.62c-.2-.7-1.2-.7-1.9-.6v-.8c-.1-2.2-.1-4.5-.3-6.8-.2-2.1-1.3-2.8-3.3-2.7-2 .1-4.4.4-6.3 1.2a5.9 5.9 0 0 0-3.8 4.8c-.5 2.5.2 5.2.3 7.8.1 3 .1 5.9.1 8.9 0 .5 3.3 0 3.3-.9v-7c0-.7 0-1.4-.1-2.1 1.2-.5 3.1 0 4.3.1.9.1 1.8-.1 2.7-.2 0 1.9.1 3.9.2 5.9 0 1 .4 3-.3 3.8-.4.4 1.2.3 1.3.3.7-.1 1.5-.3 1.9-.9.8-.9.4-3.2.3-4.3-.1-1.6-.1-3.2-.1-4.8.8-.4 1.9-1 1.7-1.7Zm-6.6-.2c-1.9 0-3.8-.3-5.7 0l-.3-3.2c-.1-2 .1-4.7 1.9-5.9.5-.3 1.4-.3 2-.4.8-.1 1.6-.3 2.4.2 1 .7.8 3.1.8 4.1 0 1.7.2 3.4.3 5.1-.5.1-1 .1-1.4.1ZM19.15 4.12c0 .2 0 .4.1.5v.4c.1.2.2.3.4.4.3.2.7.2 1.1.2.4 0 .9-.2 1.2-.4l.2-.2c.4-.3.8-.7.6-1.1-.4-.9-.4-1.9-.3-2.9 0-.8-.8-1.1-1.5-1-.6.1-1.8.5-1.8 1.3s-.1 1.7.1 2.5c-.1.1-.1.2-.1.3ZM80.65 33.32c-1.6-.6-3.3-.6-4.9-.8l-4.9-.6c-1.6.1-3.3 0-5 .1l-4.9.3c-6.5.3-13 .3-19.5.1-6.5-.1-13-.5-19.6-.5-3.3 0-6.6.1-9.9.3-1.6.3-3.2.5-4.9.9-1.6.4-3.1.9-4.8 1 1.6.4 3.3.3 5 .3 1.6 0 3.2.1 4.9.2 3.2-.2 6.5-.2 9.7-.3 6.5 0 13 .3 19.6.5 6.5.1 13.1.2 19.7-.1l4.9-.3c1.6-.1 3.2-.1 4.8-.1 1.6-.1 3.3-.3 4.9-.5 1.7-.2 3.2-.6 4.9-.5h.1v-.6c0 .4 0 .5-.1.6Z" fill="#000"/>
    </g>
    <svg width="114" height="46" fill="none" xmlns="http://www.w3.org/2000/svg"><path d="M110.89 41.8c4.42.9.8-35.81.1-38.2-2.01-6.6-26.84-2.1-32.37-1.7-12.77 1-25.34-1-37.8-.4-6.24.3-35.09-1.8-37.7 2C-1.91 10.67.4 29.23 1.8 38.51c-4.02.8 2.31 4.19 3.12 4.89 6.33 2.19 16.48-.2 23.12.4 15.48 1.5 31.97-2.2 47.55-1 4.53 1.1 9.65 1 14.28 1.2 3.52 5.58 19.8-2.4 21-2.2-.1 0 .51.1 0 0Z" fill="#000"/>
    <path d="M26.24 24.35c-.1-2.5-.5-5.1-.5-7.59 0-2.1.4-4.19-.3-6.18 0-.2.1-.4.1-.7.2-1-3.12-.5-3.62.4-.3.3-.5.6-.4.9 0 .1.1.2.1.2-.6 2.99-1.51 5.98-2.52 8.88-.4 1.1-.8 2.2-1.2 3.39-.6-1-1.11-2.1-1.61-3.2-1.31-3.29-2.52-6.58-4.13-9.67.2-1.5-3.01-1.3-3.71 0-.8 1.6-.7 3.19-.4 4.89.3 1.9.3 3.79.4 5.78 0 3.8.3 7.49.4 11.28-.3.4-.4.8-.1 1.3.2.2.3.4.5.5.9.7 3.32.1 3.32-1.2 0-3.9-.3-7.79-.4-11.68v-1.1c.1.1.1.3.2.4.6 1.5 1.2 3 2.1 4.4.81 1.4 1.21 2.89 1.72 4.39-.2.2-.3.4-.2.7 0 .2.1.3.2.3.6.5 1.7.3 2.4 0 .31-.1.51-.2.81-.4.3-.2.8-.6.7-1.1 0-.1-.1-.2-.1-.3.4-1.2.71-2.5.91-3.7a25 25 0 0 1 1.2-3.89c0 .6.1 1.2.1 1.8.2 2.4 0 4.79 0 7.18 0 .8.1 1.5.2 2.3.11.3.31 1.7.31 1.8-.6.5-.4 1.2.4 1.4.9.2 2.01-.1 2.62-.7 1.1-1 .6-2.7.3-4-.3-2 .3-4.49.2-6.78ZM34.18 25.05c-.1-1.9-.7-3.7-.7-5.6 0-2.19.2-4.38-.1-6.48-.1-.7-3.82.1-3.72 1 .3 2 .2 4 .2 5.99 0 1.9.4 3.69.7 5.58.3 2-.1 3.9.1 5.9.1.89.7 2.59.1 3.38-.4.5 1.41.3 1.51.3.7-.1 1.71-.4 2.21-1 .6-.8.2-2.29.1-3.19-.5-1.9-.3-3.99-.4-5.88ZM49.76 21.85c-2-2.6-5.63-.7-8.14-1.5-1.3-.4-1.3-2.19-1.3-3.19 0-1.4-.1-2.6-.3-3.89-.1-1 0-2 .7-2.8.1-.1.8-.3.8-.3.3-.1.6-.1 1-.1 1.51-.1 4.43.2 3.83 2.4-.3 1 3.41.4 3.72-.6 1.2-4.39-6.94-3.49-9.25-2.89-2.11.6-4.43 1.8-4.53 4.2-.1 1.19.3 2.29.3 3.38.1 1.3-.2 2.6.3 3.9 1.01 2.79 5.23 1.5 7.45 1.7 3.61.3 2.6 5.18 2.6 7.48.01 1.2 1.12 3.29.21 4.29-.6.6-1.91.7-2.61.7-.8.1-2.11.3-2.62-.4-.9-1.3.1-3.6-.1-5.1-.1-.9-3.92-.1-3.72 1 .3 2.5-1.3 5.8 2.31 6.3 2.32.3 4.93-.2 7.14-.9 1.1-.4 2.21-.9 3.12-1.7 1-.9.7-2.2.4-3.4-.8-2.99.5-6.18-1.3-8.58ZM66.35 21.65c-.1-3.59-.7-7.08-.7-10.67 0-1.9-3.82-1.2-3.82.3 0 3.39.5 6.78.6 10.17v.2c-1.8 0-3.72.2-5.63.2.2-4.39-.6-8.78-.4-13.07 0-.6-3.72-.1-3.72 1-.2 4.19.6 8.48.4 12.67-.1 2-.2 4-.2 6.09 0 1 .2 2.1.3 3.1.1.89.5 2.19.2 3.09-.2.7 3.42.3 3.72-.7.5-1.7-.2-3.8-.4-5.5-.2-1.59 0-3.28.1-4.98 1.91-.1 3.92-.3 5.83 0l.3 3.9c.1 1.09.2 2.19.2 3.28 0 1 .1 2.4-.2 3.3-.7 2 3.02 1.8 3.52.3.7-1.8.5-4 .4-5.8-.1-2.19-.5-4.58-.5-6.88ZM82.44 25.94c-.9-2.59-2.31-4.89-3.42-7.38 1-1.9 1.91-3.7 2.81-5.59.8-1.7 1.41-3.59 2.92-4.79.5-.4.5-.8-.2-.9-.8-.1-2.01.2-2.61.7a9.51 9.51 0 0 0-3.02 4.1c-.9 1.89-1.81 3.89-2.82 5.78-.1.1-.1.3-.2.4-.5.3-.7.7-.6 1.2-.8 1.5-1.5 3-2.41 4.39-.3-5.29-.9-10.48-1.1-15.77 0-1.2-3.83-.5-3.73 1 .2 6.49 1.2 12.97 1.2 19.46-.3.3-.2.5.1.6 0 1.7-.1 3.29-.2 4.99-.4.7.41 1.1 1.01 1.1h.1c.7 0 2.52-.3 2.62-1.3.2-2 .2-4 .2-5.99a28.4 28.4 0 0 0 3.82-5.29c.7 1.4 1.4 2.8 1.9 4.3.81 2.59 2.22 4.98 3.02 7.58.5 1.7 4.23.7 3.72-1-.9-2.6-2.2-5-3.11-7.59ZM104.86 21.55c-.2-.8-1.31-.8-2.22-.7v-1c-.1-2.49-.2-5.08-.4-7.58-.2-2.3-1.5-3.19-3.82-3.09-2.31.1-5.02.5-7.14 1.3a6.5 6.5 0 0 0-4.32 5.39c-.5 2.89.2 5.88.4 8.78.1 3.29.1 6.68.1 9.98 0 .5 3.72 0 3.72-1v-7.89c0-.8 0-1.5-.1-2.29 1.31-.6 3.52 0 4.83.1 1.1.1 2.11-.2 3.12-.3 0 2.2.1 4.39.2 6.59 0 1.1.5 3.39-.3 4.29-.4.5 1.4.3 1.5.3.8-.1 1.71-.4 2.21-1 .91-1.1.4-3.6.4-4.9-.1-1.79-.1-3.58-.1-5.38.91-.1 2.12-.8 1.92-1.6Zm-13.88-.2-.3-3.59c-.2-2.2.1-5.29 2.21-6.58.6-.4 1.61-.3 2.22-.4.9-.2 1.9-.4 2.71.2 1.1.8.9 3.49.9 4.59 0 1.9.2 3.79.3 5.68-.5.1-1.1.1-1.6.1-2.21-.1-4.43-.4-6.44 0ZM30.96 10.38c.5 0 1.01-.2 1.41-.5.1-.1.2-.1.2-.2.5-.3.9-.8.7-1.3-.5-1-.4-2.1-.4-3.2 0-.89-.9-1.19-1.7-1.09-.7.1-2.12.6-2.12 1.4 0 .9-.1 1.9.1 2.8 0 .1-.1.2-.1.3-.1.2 0 .4.1.6v.39c.1.2.2.4.4.5.51.3 1.01.3 1.41.3Z" fill="#fff"/></svg>
  </symbol>
  <symbol viewbox="0 0 114 46" id="logo-tablet">
    <g class="logo-tablet">
      <path d="M110.89 41.8c4.42.9.8-35.81.1-38.2-2.01-6.6-26.84-2.1-32.37-1.7-12.77 1-25.34-1-37.8-.4-6.24.3-35.09-1.8-37.7 2C-1.91 10.67.4 29.23 1.8 38.51c-4.02.8 2.31 4.19 3.12 4.89 6.33 2.19 16.48-.2 23.12.4 15.48 1.5 31.97-2.2 47.55-1 4.53 1.1 9.65 1 14.28 1.2 3.52 5.58 19.8-2.4 21-2.2-.1 0 .51.1 0 0Z" fill="#000"/>
      <path d="M26.24 24.35c-.1-2.5-.5-5.1-.5-7.59 0-2.1.4-4.19-.3-6.18 0-.2.1-.4.1-.7.2-1-3.12-.5-3.62.4-.3.3-.5.6-.4.9 0 .1.1.2.1.2-.6 2.99-1.51 5.98-2.52 8.88-.4 1.1-.8 2.2-1.2 3.39-.6-1-1.11-2.1-1.61-3.2-1.31-3.29-2.52-6.58-4.13-9.67.2-1.5-3.01-1.3-3.71 0-.8 1.6-.7 3.19-.4 4.89.3 1.9.3 3.79.4 5.78 0 3.8.3 7.49.4 11.28-.3.4-.4.8-.1 1.3.2.2.3.4.5.5.9.7 3.32.1 3.32-1.2 0-3.9-.3-7.79-.4-11.68v-1.1c.1.1.1.3.2.4.6 1.5 1.2 3 2.1 4.4.81 1.4 1.21 2.89 1.72 4.39-.2.2-.3.4-.2.7 0 .2.1.3.2.3.6.5 1.7.3 2.4 0 .31-.1.51-.2.81-.4.3-.2.8-.6.7-1.1 0-.1-.1-.2-.1-.3.4-1.2.71-2.5.91-3.7a25 25 0 0 1 1.2-3.89c0 .6.1 1.2.1 1.8.2 2.4 0 4.79 0 7.18 0 .8.1 1.5.2 2.3.11.3.31 1.7.31 1.8-.6.5-.4 1.2.4 1.4.9.2 2.01-.1 2.62-.7 1.1-1 .6-2.7.3-4-.3-2 .3-4.49.2-6.78ZM34.18 25.05c-.1-1.9-.7-3.7-.7-5.6 0-2.19.2-4.38-.1-6.48-.1-.7-3.82.1-3.72 1 .3 2 .2 4 .2 5.99 0 1.9.4 3.69.7 5.58.3 2-.1 3.9.1 5.9.1.89.7 2.59.1 3.38-.4.5 1.41.3 1.51.3.7-.1 1.71-.4 2.21-1 .6-.8.2-2.29.1-3.19-.5-1.9-.3-3.99-.4-5.88ZM49.76 21.85c-2-2.6-5.63-.7-8.14-1.5-1.3-.4-1.3-2.19-1.3-3.19 0-1.4-.1-2.6-.3-3.89-.1-1 0-2 .7-2.8.1-.1.8-.3.8-.3.3-.1.6-.1 1-.1 1.51-.1 4.43.2 3.83 2.4-.3 1 3.41.4 3.72-.6 1.2-4.39-6.94-3.49-9.25-2.89-2.11.6-4.43 1.8-4.53 4.2-.1 1.19.3 2.29.3 3.38.1 1.3-.2 2.6.3 3.9 1.01 2.79 5.23 1.5 7.45 1.7 3.61.3 2.6 5.18 2.6 7.48.01 1.2 1.12 3.29.21 4.29-.6.6-1.91.7-2.61.7-.8.1-2.11.3-2.62-.4-.9-1.3.1-3.6-.1-5.1-.1-.9-3.92-.1-3.72 1 .3 2.5-1.3 5.8 2.31 6.3 2.32.3 4.93-.2 7.14-.9 1.1-.4 2.21-.9 3.12-1.7 1-.9.7-2.2.4-3.4-.8-2.99.5-6.18-1.3-8.58ZM66.35 21.65c-.1-3.59-.7-7.08-.7-10.67 0-1.9-3.82-1.2-3.82.3 0 3.39.5 6.78.6 10.17v.2c-1.8 0-3.72.2-5.63.2.2-4.39-.6-8.78-.4-13.07 0-.6-3.72-.1-3.72 1-.2 4.19.6 8.48.4 12.67-.1 2-.2 4-.2 6.09 0 1 .2 2.1.3 3.1.1.89.5 2.19.2 3.09-.2.7 3.42.3 3.72-.7.5-1.7-.2-3.8-.4-5.5-.2-1.59 0-3.28.1-4.98 1.91-.1 3.92-.3 5.83 0l.3 3.9c.1 1.09.2 2.19.2 3.28 0 1 .1 2.4-.2 3.3-.7 2 3.02 1.8 3.52.3.7-1.8.5-4 .4-5.8-.1-2.19-.5-4.58-.5-6.88ZM82.44 25.94c-.9-2.59-2.31-4.89-3.42-7.38 1-1.9 1.91-3.7 2.81-5.59.8-1.7 1.41-3.59 2.92-4.79.5-.4.5-.8-.2-.9-.8-.1-2.01.2-2.61.7a9.51 9.51 0 0 0-3.02 4.1c-.9 1.89-1.81 3.89-2.82 5.78-.1.1-.1.3-.2.4-.5.3-.7.7-.6 1.2-.8 1.5-1.5 3-2.41 4.39-.3-5.29-.9-10.48-1.1-15.77 0-1.2-3.83-.5-3.73 1 .2 6.49 1.2 12.97 1.2 19.46-.3.3-.2.5.1.6 0 1.7-.1 3.29-.2 4.99-.4.7.41 1.1 1.01 1.1h.1c.7 0 2.52-.3 2.62-1.3.2-2 .2-4 .2-5.99a28.4 28.4 0 0 0 3.82-5.29c.7 1.4 1.4 2.8 1.9 4.3.81 2.59 2.22 4.98 3.02 7.58.5 1.7 4.23.7 3.72-1-.9-2.6-2.2-5-3.11-7.59ZM104.86 21.55c-.2-.8-1.31-.8-2.22-.7v-1c-.1-2.49-.2-5.08-.4-7.58-.2-2.3-1.5-3.19-3.82-3.09-2.31.1-5.02.5-7.14 1.3a6.5 6.5 0 0 0-4.32 5.39c-.5 2.89.2 5.88.4 8.78.1 3.29.1 6.68.1 9.98 0 .5 3.72 0 3.72-1v-7.89c0-.8 0-1.5-.1-2.29 1.31-.6 3.52 0 4.83.1 1.1.1 2.11-.2 3.12-.3 0 2.2.1 4.39.2 6.59 0 1.1.5 3.39-.3 4.29-.4.5 1.4.3 1.5.3.8-.1 1.71-.4 2.21-1 .91-1.1.4-3.6.4-4.9-.1-1.79-.1-3.58-.1-5.38.91-.1 2.12-.8 1.92-1.6Zm-13.88-.2-.3-3.59c-.2-2.2.1-5.29 2.21-6.58.6-.4 1.61-.3 2.22-.4.9-.2 1.9-.4 2.71.2 1.1.8.9 3.49.9 4.59 0 1.9.2 3.79.3 5.68-.5.1-1.1.1-1.6.1-2.21-.1-4.43-.4-6.44 0ZM30.96 10.38c.5 0 1.01-.2 1.41-.5.1-.1.2-.1.2-.2.5-.3.9-.8.7-1.3-.5-1-.4-2.1-.4-3.2 0-.89-.9-1.19-1.7-1.09-.7.1-2.12.6-2.12 1.4 0 .9-.1 1.9.1 2.8 0 .1-.1.2-.1.3-.1.2 0 .4.1.6v.39c.1.2.2.4.4.5.51.3 1.01.3 1.41.3Z" fill="#fff"/>
    </g>
  </symbol>
  <symbol viewbox="0 0 149 72" id="logo-desctop">
    <g class="logo-desctop">
      <path d="M144.16 31.1c-1.51 1.1-3.12 1.88-4.73 2.77 0-1.68-.1-3.46-.6-5.04.1-.3.1-.69.1-.98.4-2.96.7-7.01-2.02-9.08-.3-.3-1.2 0-1.91.3-.2-.2-.3-.3-.5-.4-.1-.2-.2-.5-.2-.7 0-.1-.2-.2-.4-.2.3-.39.3-.78-.41-1.08-.4-.2-.8-.3-1.1-.4-.1-.09-.1-.09-.2-.09-.91-.3-1.92-.5-2.93-.7.1-.29.4-.78.6-.98.1-.2.3-.3.4-.4l.2-.2s.11 0 .11-.09l.1-.1c.4-.3.8-.89.2-1.18-.6-.3-1.5-.1-2.01.2-.9.69-1.61 1.38-2.12 2.36-2-.2-4.02-.2-6.14-.1.1-.1.1-.2.1-.3.2-.58-.9-.48-1.2-.48l-4.73.59c1.4-3.75 3.12-8.5 1-12.14C114.57.6 111.85.1 109.63 0c-2.41-.1-4.93.5-7.05 1.58-4.83 2.57-7.14 7.6-8.25 12.93-.5-.69-2.31-.4-2.62.5-.1.3-.2.59-.3.98-.2.2-.3.4-.3.6v.2h-.2c0-.1 0-.2.1-.3.1-.1.2-.2.3-.4.6-2.27 1.2-4.54 1.91-6.71.3-.8-2.51-.4-2.81.4-.4 1.18-.81 2.36-1.11 3.55-.2.1-.4.2-.4.3v.1c-.1-.1-.3-.2-.5-.2v-1c0-.39-2.83 0-2.83.8v1.58c-.2.1-.3.2-.5.3l-.2.19c-.1.1-.1.2-.1.2v.1l-.1.1c-.1.1-.2.3 0 .49.2.2.5.2.7.2h.1v.49h-.7l-.4-.1c0-.4-.7-.5-1.41-.3v-.1c-.1-.59-.2-1.18-.2-1.77.2-.1.5-.2.7-.3.2-.1.3-.2.3-.4v-.19c0-.2-.4-.2-.5-.2h-.6c-.1-1.28-.1-2.56-.1-3.85 0-.79-2.83-.3-2.83.8 0 1.77 0 3.55.2 5.22h-.3v-1.48c0-.98-1.3-1.18-2.11-.79.3-.3.5-.59.4-.98-.4-1.38-.8-2.77-1-4.25-.2-1.38-3.02-.69-2.82.8.2 1.47.6 2.85 1 4.24.2.79 1.31.89 2.12.5-.2.19-.4.48-.4.78v.6c-.3-.3-.5-.3-.91-.3-1.1 0-1.71.88-1.41 1.48-.2 0-.3-.1-.5-.1a11.8 11.8 0 0 1-.7-3.75c0-.9-1.32-.99-2.12-.7v-.2c-.4-.78-.6-1.67-.8-2.46-.3-1.28-3.23-.6-2.83.8.2.58.3 1.27.5 1.87h-.1c-.3.1-.6.2-.9.4-.8.09-1.81.58-1.81 1.18.1.49.1.98.2 1.38-.4.1-1 .1-1.51.2-.3-.8-.5-1.58-.6-2.37-.1-.9-1.61-.9-2.32-.3a24.4 24.4 0 0 0-3.12-5.73c-2.72-3.35-7.25-4.54-11.37-3.65a9.44 9.44 0 0 0-5.04 2.57c-1.2 1.38-1.4 3.06-1.2 4.74.2 1.48.6 3.95 1.6 5.92-.4 0-.7 0-.9.1-.3.1-.6.2-.8.4-1.92 0-3.93 0-5.84-.1-4.23-.2-8.36-.9-12.59-.7-.9 0-1.5.7-1.5 1.29-1.01.49-1.72 1.28-2.12 2.27-1.71-1.09-3.52-2.27-5.34-3.16-.7-.4-3.32.69-2.31 1.18 1.81.9 3.62 2.08 5.33 3.16.5.3 1.31.1 1.81-.1 0 0 .1 0 .2-.1a9.5 9.5 0 0 0 .2 4.45c0 .1.1.2.2.3v1.18c-.4.2-.7.5-.8.79-.2 1.38-.3 2.76-.3 4.14-.3.2-.5.5-.5.8-.2 3.25 0 6.6.5 9.86.2 2.67.7 5.24 1.21 7.9.1.4.1.8.2 1.28a8.04 8.04 0 0 0-.2 3.46c-.9.2-1.71.89-1.2 1.58a8.03 8.03 0 0 0 2.6 2.56c-.6-.1-1.4.1-1.9.6-.8.79-1.71 1.48-2.52 2.27-.4.4-.3.89.3 1.08.7.2 1.51-.1 2.02-.49.8-.79 1.7-1.48 2.51-2.27.2-.2.3-.5.2-.7 3.22 1.69 7.25 1.3 11.18.9-.9 1.58-1.51 3.25-2.22 4.93-.3.7 2.52.4 2.82-.4.6-1.67 1.2-3.25 2.11-4.83 3.73.1 7.55.1 11.28.1.1.2.4.3.7.3 3.33.3 6.55-.1 9.77-.7 4.83-.2 9.66-.49 14.5-.79 7.54-.2 15.2-.3 22.74-.3l.3.3c.3.3.61.3 1.01.3h.2c.7 0 1.41.1 2.12.1.2 0 .3.1.6 0 .8.1 1.61.1 2.32.2.2.2.5.3.8.4 3.83.29 7.65.49 11.48.68.1.2.5.3.8.3 7.15.1 15.4 2.76 21.75-1.68.5-.4.3-.89-.3-.99h-.3a49.86 49.86 0 0 0 2.91-8.49c.4-.2.6-.49.6-.88 0-1.19.2-2.37.4-3.56.21-.89.31-1.77.41-2.66.4-2.17.8-4.35 1-6.42a43.92 43.92 0 0 0 6.65-3.75c1.61-1.18-.8-1.88-1.81-1.18ZM88.39 16.3l-.1.1c.1-.3.1-.6.2-.9h.1c0 .2-.1.5-.2.8Z" fill="#000"/>
      <path d="M63.73 12.55c.1.2.6.2.8.2.4 0 .81-.1 1.11-.2.4-.2 1.1-.6.8-1.09-.4-.6-.6-1.18-1-1.78-.1-.2-.6-.2-.8-.2-.4 0-.81.1-1.11.2-.4.2-1.11.6-.8 1.09.3.6.6 1.28 1 1.78ZM20.85 10.87c.2.6 1.1.6 1.6.5.51-.1 1.42-.6 1.21-1.3-.2-.58-.4-1.27-.9-1.77s-1.31-.4-1.91-.2c-.4.2-1.21.8-.7 1.29.4.6.5.89.7 1.48ZM30.91 13.83c.8 0 3.12-1.28 1.21-1.28-.9 0-3.12 1.28-1.2 1.28ZM123.42 12.25c.3.1.7 0 1.11-.1.3-.1.7-.2.9-.5.4-.39.71-.68 1.01-1.18.1-.2.2-.4 0-.59-.2-.2-.5-.2-.8-.3-.4 0-.8.1-1.11.2-.3.1-.6.3-.8.6-.1.2-.2.39-.4.49l-.2.2c-.21.2-.31.4-.31.59.1.4.3.5.6.6ZM136.81 17.58c.6-.1 1.41-.2 1.91-.69 1.31-1.09 2.62-2.17 3.63-3.55.3-.4-1-.2-1.11-.2-.5.1-1.3.3-1.71.7-.9 1.27-2.22 2.26-3.42 3.35-.5.4.4.4.7.4ZM147.68 44.33h-4.93c-.6 0-1.51.5-1.61 1.09-.1.69.8.89 1.3.89h4.94c.6 0 1.51-.5 1.61-1.09.1-.69-.7-.89-1.3-.89ZM57.39 60.13c-.5.1-1.41.3-1.61.79-.5 1.28-1.01 2.56-1.41 3.85-.2.69 2.61.3 2.82-.5.4-1.28.8-2.56 1.4-3.85.2-.5-1-.3-1.2-.3ZM62.02 62.7c-.3 0-.7.1-1 .2-.31.09-.71.19-1.02.39-.1.1-.3.2-.3.4v.29c0 .1-.1.2-.1.3-.1.1-.1.19 0 .29.2.1.5.1.7.1.4 0 .71-.1 1.11-.3.2-.1.6-.2.8-.4.11-.2.21-.29.31-.49V63c0-.3-.4-.3-.5-.3ZM117.48 66.35c-.4-.7-3.02.3-2.81.79.8 1.57 1.9 3.06 2.91 4.63.4.7 3.02-.39 2.82-.78-1-1.58-2.11-3.06-2.92-4.64ZM121.51 63.98c-.3-.6-1.1-.6-1.61-.4-.4.1-1.51.6-1.2 1.19.4.79.8 1.58 1.2 2.27.3.59 1.1.59 1.61.4.4-.1 1.51-.6 1.2-1.2-.4-.68-.8-1.47-1.2-2.26ZM5.75 42.65c-1.51.4-3.02.6-4.53 1-.5.09-1.31.58-1.21 1.27.2.7 1.1.7 1.71.6 1.51-.4 3.02-.6 4.53-.99.5-.1 1.3-.7 1.2-1.28-.3-.7-1.2-.7-1.7-.6Z" fill="#000"/>
      <path d="M44.1 39.7c-.1-2.67-.5-5.34-.5-8 0-2.18.4-4.45-.4-6.52 0-.2.1-.5.1-.69.2-1.09-3.33-.5-3.83.5-.3.29-.5.59-.4.98 0 .1.1.2.1.3a99.61 99.61 0 0 1-2.62 9.38c-.4 1.18-.9 2.36-1.3 3.55-.61-1.09-1.22-2.17-1.72-3.36-1.4-3.45-2.62-6.9-4.33-10.17.2-1.48-3.22-1.38-3.92 0-.81 1.68-.7 3.36-.4 5.24.3 2.07.4 4.04.4 6.12 0 3.95.4 7.9.4 11.84-.4.4-.5.9-.1 1.38l.6.6c.9.69 3.52.1 3.52-1.29 0-4.14-.3-8.19-.4-12.34v-1.18c.1.1.1.3.2.4.6 1.57 1.31 3.15 2.22 4.63.9 1.48 1.3 3.06 1.81 4.64-.2.2-.3.5-.2.7 0 .2.1.3.3.39.6.6 1.91.3 2.52 0 .3-.1.6-.3.8-.4.3-.2.9-.69.7-1.18 0-.1-.1-.2-.1-.3.51-1.28.71-2.56 1.01-3.94.3-1.39.8-2.77 1.31-4.15.1.6.1 1.28.2 1.88.2 2.56 0 5.03 0 7.6 0 .88.1 1.58.2 2.46.1.3.4 1.78.3 1.88-.6.6-.4 1.28.4 1.38.91.2 2.12-.1 2.83-.69 1.2-1.09.6-2.86.4-4.24-.6-2.37-.1-5.04-.1-7.4ZM52.56 40.38c-.1-1.97-.81-3.85-.81-5.82 0-2.27.2-4.54-.2-6.81-.1-.7-4.13.1-4.03 1.08.3 2.08.2 4.25.2 6.32 0 2.08.5 3.85.7 5.93.31 2.07-.1 4.14.1 6.21.11 1 .81 2.77.11 3.56-.4.5 1.51.3 1.61.3.8-.1 1.81-.4 2.32-1 .7-.78.2-2.36.1-3.35-.2-2.27 0-4.34-.1-6.42ZM69.16 37.03c-2.1-2.77-5.93-.8-8.65-1.58-1.41-.4-1.41-2.27-1.41-3.36 0-1.38-.1-2.76-.3-4.14-.1-1.09 0-2.08.8-2.87.1-.1.9-.3.8-.3.41-.1.71-.1 1.11-.1 1.62-.09 4.74.2 4.13 2.48-.3.98 3.63.4 3.93-.6 1.2-4.54-7.45-3.65-9.87-3.06-2.21.6-4.73 1.88-4.83 4.35-.1 1.18.3 2.37.3 3.55.1 1.38-.2 2.76.3 4.15 1.11 2.96 5.64 1.58 7.86 1.77 3.92.3 2.71 5.43 2.81 7.9 0 1.28 1.21 3.46.2 4.44-.6.7-2 .7-2.81.8-.8.1-2.22.29-2.82-.5-1-1.38.1-3.75-.1-5.43-.2-.99-4.23-.1-4.03.99.3 2.66-1.4 6.12 2.42 6.61 2.51.3 5.23-.2 7.65-.89 1.2-.4 2.31-.98 3.32-1.77 1-.9.7-2.37.4-3.56-.7-2.96.7-6.32-1.2-8.88ZM86.78 36.83c-.1-3.75-.7-7.5-.7-11.25 0-1.98-4.03-1.29-4.03.3 0 3.55.5 7.1.7 10.75v.2c-2 0-3.92.2-5.93.2.2-4.64-.6-9.18-.4-13.82 0-.6-3.93-.1-4.03 1.08-.2 4.45.6 8.89.5 13.33l-.3 6.42c0 1.08.2 2.17.3 3.25.1 1 .5 2.37.2 3.26-.2.8 3.62.3 3.93-.69.5-1.78-.2-4.05-.4-5.82-.2-1.68 0-3.46.1-5.24 2-.1 4.12-.3 6.14 0l.3 4.15c.1 1.18.2 2.27.2 3.46 0 .98.1 2.46-.2 3.45-.8 2.07 3.22 1.88 3.82.4.7-1.88.5-4.15.4-6.13-.2-2.36-.6-4.83-.6-7.3ZM103.9 41.37c-.91-2.76-2.42-5.13-3.63-7.8 1-1.97 2.01-3.85 3.02-5.82.8-1.78 1.51-3.85 3.12-5.04.6-.49.6-.88-.3-.98-.9-.1-2.11.2-2.82.69a11.17 11.17 0 0 0-3.22 4.24c-1 2.08-1.91 4.05-3.02 6.02-.1.1-.2.3-.2.4-.5.3-.8.79-.6 1.28-.81 1.58-1.62 3.06-2.52 4.64-.3-5.53-1.01-11.05-1.21-16.58 0-1.29-4.03-.5-4.03 1.08.2 6.82 1.21 13.63 1.31 20.54v.1c-.3.3-.2.49.1.59 0 1.77-.1 3.45-.2 5.23-.5.79.5 1.09 1.1 1.09h.1c.71 0 2.63-.4 2.73-1.39.2-2.07.3-4.14.2-6.22a32.57 32.57 0 0 0 4.12-5.62c.81 1.48 1.51 2.96 2.02 4.54.9 2.76 2.31 5.23 3.22 8 .5 1.77 4.53.69 4.03-1.1-.91-2.66-2.32-5.22-3.33-7.89ZM127.85 36.73c-.2-.79-1.4-.89-2.31-.79v-.99c-.1-2.66-.2-5.33-.4-8-.2-2.46-1.62-3.35-4.03-3.25-2.42.1-5.34.5-7.65 1.38a7.06 7.06 0 0 0-4.63 5.63c-.6 2.96.2 6.22.4 9.18.2 3.46.1 7 .1 10.46 0 .6 4.03 0 4.03-1.08v-8.3c0-.78-.1-1.57-.1-2.46 1.4-.6 3.72 0 5.13.1 1.1.1 2.22-.2 3.32-.3 0 2.27.1 4.64.2 6.91 0 1.19.5 3.55-.4 4.54-.4.5 1.51.3 1.61.3.8-.1 1.81-.4 2.32-1.09 1-1.08.5-3.75.4-5.13-.1-1.88-.1-3.85-.1-5.73 1 .2 2.31-.59 2.11-1.38Zm-14.9-.2-.3-3.75c-.2-2.37.1-5.52 2.32-7 .6-.4 1.7-.3 2.41-.4 1.01-.2 2.02-.4 2.92.2 1.21.79.9 3.65.9 4.83 0 1.98.21 3.95.31 6.03-.6.1-1.1.1-1.71.1-2.32-.1-4.63-.4-6.85 0ZM49.13 24.98c.5-.1 1.11-.2 1.51-.49.1-.1.2-.1.3-.2.5-.3 1.01-.79.7-1.38-.5-1.08-.4-2.27-.4-3.35 0-1-1-1.29-1.8-1.19-.71.1-2.22.6-2.22 1.48 0 .99-.1 1.98.1 2.96 0 .1-.1.2-.1.4-.1.2 0 .4.1.59v.4c.1.2.2.39.4.49.4.3.91.3 1.41.3Z" fill="#fff"/>
    </g>
  </symbol>
  <!--Логотип академии-->
  <symbol viewbox="0 0 27 35" id="academy-logo">
    <g class="academy-logo">
      <path d="M13.6 0h-.1L0 1.4v24.7l13.5 8 13.4-8V1.4L13.6 0ZM25 12.1 13.5 5.3v-.1h-.1l-.1-.1v.1L1.9 12.1v-9l11.5-1.2L25 3.1v9ZM13.4 6.8l11.5 6.7-4.5 2.6-7.1-4.2v1.4l5.9 3.5-.9.5-5-3v1.4l3.8 2.3-.8.5-3-1.8v1.4l1.9 1.1-1.8 1.1L2 13.6l11.4-6.8ZM1.9 15.1l11.4 6.8v1l-7.9-4.7v1.4l8 4.8v1.1l-8-4.7v1.4l8 4.8 8.1-4.9v-5.2l3.4-2v10l-11.5 6.9L1.9 25v-9.9Z" fill="#63D1BB"/>
    </g>
  </symbol>
  <!--Вконтакте-->
  <symbol viewbox="0 0 28 22" id="vk-ico">
    <g class="vk-ico">
      <path d="M1 5.34c0-.86.52-1.32 1.55-1.38l3.97.02c.26 0 .44.13.53.38.4 1.26.86 2.34 1.37 3.25.5.92 1.17 1.97 1.99 3.16.07.15.18.23.34.23.13 0 .22-.06.3-.18l.07-.28.03-4.35c0-.3-.07-.5-.23-.6-.15-.1-.43-.18-.83-.23-.32-.05-.48-.23-.48-.55 0-.07 0-.12.02-.15.38-1.09 1.44-1.63 3.2-1.63l1.5-.03c.67 0 1.23.16 1.67.48.44.32.67.82.67 1.5v5.72c.12.08.24.12.34.12.27 0 .5-.15.7-.45 1.95-2.58 3-4.31 3.17-5.18 0-.02.01-.06.05-.13.12-.25.33-.47.61-.65.29-.19.53-.31.75-.38a.55.55 0 0 1 .24-.05h4.13l.26.03c.36 0 .63.16.83.47.07.1.12.21.15.33a2.4 2.4 0 0 1 .06.55v.18a6.11 6.11 0 0 1-.94 2.2c-.5.78-1.15 1.62-1.93 2.53-.79.9-1.27 1.5-1.47 1.78-.16.2-.24.39-.24.56 0 .13.07.28.21.45l3.9 4.63c.2.26.31.56.31.88 0 .38-.16.7-.48.95-.32.25-.7.4-1.14.43l-.46.02h-4.04c-.02 0-.06 0-.11.02a.86.86 0 0 1-.1.01c-.4 0-.76-.16-1.1-.48-.12-.13-.96-1.12-2.5-2.97a1.39 1.39 0 0 0-.38-.32 38.47 38.47 0 0 0-.53 2.24l-.08.42a1.4 1.4 0 0 1-1.12 1.06l-.37.02h-2.61c-1.48 0-2.95-.63-4.41-1.9a19.3 19.3 0 0 1-3.96-4.95 47.51 47.51 0 0 1-3.28-7.05A1.92 1.92 0 0 1 1 5.34Zm16.01 6.51c-.37 0-.7-.1-1.01-.29a.9.9 0 0 1-.45-.79V5c0-.34-.1-.58-.27-.72-.18-.14-.49-.21-.93-.21l-1.52.05c-.76 0-1.34.12-1.73.37.78.36 1.17.93 1.17 1.71v4.43a1.5 1.5 0 0 1-.53 1.04c-.32.28-.68.42-1.07.42-.53 0-.94-.24-1.22-.73a26.16 26.16 0 0 1-3.1-5.63l-.23-.66-3.55-.02c-.23 0-.36.01-.38.03-.03.03-.04.1-.04.22 0 .15.01.3.05.48l.56 1.4c1.49 3.64 3.11 6.51 4.86 8.6 1.75 2.1 3.47 3.15 5.16 3.15h2.66c.1 0 .19-.03.24-.09.05-.06.1-.17.13-.34l.06-.25.5-2.21c.15-.3.27-.5.38-.6.2-.2.42-.28.69-.28.43 0 .86.24 1.3.73l2.27 2.71c.14.22.3.33.45.33h4.4c.53 0 .8-.13.8-.38a.47.47 0 0 0-.08-.25l-3.87-4.55c-.3-.35-.45-.73-.45-1.13 0-.4.14-.8.43-1.16.23-.34.68-.9 1.34-1.67.67-.78 1.25-1.51 1.75-2.19.5-.68.82-1.3.98-1.85l.08-.33a.37.37 0 0 1-.02-.16c0-.07-.01-.14-.03-.19h-4.18c-.27.1-.48.25-.64.45L21.8 6c-.45 1.16-1.6 2.94-3.5 5.36-.36.33-.8.5-1.3.5Z" fill="#231F20"/>
    </g>
  </symbol>
  <!--Ютуб-->
  <symbol viewbox="0 0 28 22" id="youtube-ico">
    <g class="youtube-ico">
      <path d="m17.85 10.8-5.24-3.5a.65.65 0 0 0-1.01.55v6.98a.65.65 0 0 0 1.01.54l5.24-3.49a.65.65 0 0 0 0-1.09Zm-4.94 2.8V9.08l3.4 2.27-3.4 2.27Zm12.48-8.56a2.4 2.4 0 0 0-1.45-1.63C20.22 1.98 14.25 2 14 2s-6.22-.02-9.94 1.4a2.4 2.4 0 0 0-1.45 1.64 25.32 25.32 0 0 0-.61 6.3c0 3.26.33 5.22.61 6.3a2.4 2.4 0 0 0 1.45 1.63c3.72 1.43 9.69 1.4 9.94 1.4h.08c.75 0 6.31-.04 9.86-1.4a2.4 2.4 0 0 0 1.45-1.64c.28-1.07.61-3.03.61-6.3 0-3.25-.33-5.22-.61-6.29Zm-1.27 12.27a1.1 1.1 0 0 1-.65.74c-3.5 1.34-9.4 1.32-9.47 1.32-.07 0-5.98.02-9.47-1.32a1.09 1.09 0 0 1-.65-.74c-.27-1-.57-2.85-.57-5.97 0-3.12.3-4.97.57-5.97a1.1 1.1 0 0 1 .65-.74C8.03 3.29 13.93 3.3 14 3.3c.07 0 5.98-.02 9.47 1.32a1.1 1.1 0 0 1 .65.74c.27 1 .57 2.85.57 5.97 0 3.12-.3 4.96-.57 5.97Z" fill="#231F20"/>
    </g>
  </symbol>
  <!--Телеграм-->
  <symbol viewbox="0 0 28 22" id="telegram-ico">
    <g class="telegram-ico">
      <path fill-rule="evenodd" clip-rule="evenodd" d="M23.46 3.15c.18.15.27.38.23.61l-2.63 15.76a.66.66 0 0 1-1.01.44l-7.88-5.25a.66.66 0 0 1-.15-.96l2.61-3.26-4.36 2.9a.66.66 0 0 1-.65.05L4.36 10.8a.66.66 0 0 1 .08-1.2l18.38-6.57a.66.66 0 0 1 .64.11ZM6.33 10.32l3.53 1.77 7.56-5.04a.66.66 0 0 1 .88.96l-4.8 6 6.43 4.3 2.28-13.66-15.88 5.67Z" fill="#231F20"/>
    </g>
  </symbol>
  <!--Стрелка-->
  <symbol viewbox="0 0 50 26" id="arrow-ico">
    <g class="arrow-ico">
      <path d="M50 11H7.7l8.1-8.2L13 0 0 13l13 13 2.8-2.8L7.7 15H50v-4Z" fill="#000"/>
    </g>
  </symbol>
  <!--Чекбокс-->
  <symbol viewbox="0 0 24 17" id="check-ico">
    <g class="check-ico">
      <path d="M23.963 1.68385L22.9687 0.692322L8.76555 14.7862L1.73497 7.77467L0.740742 8.76619L7.77132 15.7777L8.76555 16.7692L9.83079 15.7777L23.963 1.68385Z" fill="black"/>
    </g>
  </symbol>
  <!--Телефон-->
  <symbol viewbox="0 0 25 24" id="phone-ico">
    <g class="phone-ico" opacity=".2" fill="#000">
      <path d="M17.44 24h-1.1a17.63 17.63 0 0 1-11.2-5.73A18.8 18.8 0 0 1 0 6.72V5.33c.1-.89.5-1.48 1.1-2.07.61-.7 1.62-1.48 2.53-1.58.7 0 1.81.5 2.22 1.09.4.49.6 1.58.8 2.37.2.88.6 1.97.5 2.76-.2 1.19-1.8 1.68-2.21 2.57a16.4 16.4 0 0 0 7.56 8.2c.8-.5 1.61-1.88 2.82-1.88.4 0 1.01.2 1.41.3.5.1.91.3 1.31.49.71.3 2.02.6 2.42 1.19.4.59.7 1.58.6 2.17-.3 1.28-2.41 2.66-3.62 3.06ZM12.6 1.48A10.8 10.8 0 0 1 23.5 12.15H25C25 5.43 19.46 0 12.6 0v1.48Z"/>
      <path d="M12.6 9.19v1.58c.8 0 1.41.59 1.41 1.38h1.62a3 3 0 0 0-3.03-2.96ZM12.6 6.12a6.11 6.11 0 0 1 6.15 6.03h1.61c0-4.15-3.42-7.5-7.66-7.5v1.47h-.1Z"/>
    </g>
  </symbol>
  <!--Письмо-->
  <symbol viewbox="0 0 32 21" id="check-ico">
    <g class="check-ico">
      <path opacity=".2" d="M28 0H4C1.8 0 0 1.8 0 4v13c0 2.2 1.8 4 4 4h24c2.2 0 4-1.8 4-4V4c0-2.2-1.8-4-4-4ZM2 5.3l7 5.3-7 5.3V5.3ZM30 17a2 2 0 0 1-2 2H4a2 2 0 0 1-2-2l7.8-5.9 4.4 3.3a3 3 0 0 0 3.6 0l4.4-3.3L30 17Zm0-1.2-7-5.3 7-5.3v10.6Zm-12.8-2.2c-.4.3-.8.4-1.2.4-.4 0-.9-.1-1.2-.4l-4.1-3.1-.8-.6L2 4c0-1.1.9-2 2-2h24a2 2 0 0 1 2 2l-12.8 9.6Z" fill="#000"/>
    </g>
  </symbol>
</svg>
